<svg width="53" height="24" viewBox="0 0 53 24" fill="none" xmlns="http://www.w3.org/2000/svg">
<rect width="53" height="24" rx="3" fill="#FCFCFC"/>
<path d="M12.5674 8.5H13.5361V13.7969C13.5361 14.3437 13.4072 14.832 13.1494 15.2617C12.8942 15.6888 12.5335 16.026 12.0674 16.2734C11.6012 16.5182 11.0544 16.6406 10.4268 16.6406C9.79915 16.6406 9.25228 16.5182 8.78613 16.2734C8.31999 16.026 7.95801 15.6888 7.7002 15.2617C7.44499 14.832 7.31738 14.3437 7.31738 13.7969V8.5H8.28613V13.7188C8.28613 14.1094 8.37207 14.457 8.54395 14.7617C8.71582 15.0638 8.96061 15.3021 9.27832 15.4766C9.59863 15.6484 9.98145 15.7344 10.4268 15.7344C10.8721 15.7344 11.2549 15.6484 11.5752 15.4766C11.8955 15.3021 12.1403 15.0638 12.3096 14.7617C12.4814 14.457 12.5674 14.1094 12.5674 13.7188V8.5ZM19.5957 11.8437L18.7676 12.0781C18.7155 11.9401 18.6387 11.806 18.5371 11.6758C18.4382 11.543 18.3027 11.4336 18.1309 11.3477C17.959 11.2617 17.7389 11.2187 17.4707 11.2187C17.1035 11.2187 16.7975 11.3034 16.5527 11.4727C16.3105 11.6393 16.1895 11.8516 16.1895 12.1094C16.1895 12.3385 16.2728 12.5195 16.4395 12.6523C16.6061 12.7852 16.8665 12.8958 17.2207 12.9844L18.1113 13.2031C18.6478 13.3333 19.0475 13.5326 19.3105 13.8008C19.5736 14.0664 19.7051 14.4089 19.7051 14.8281C19.7051 15.1719 19.6061 15.4792 19.4082 15.75C19.2129 16.0208 18.9395 16.2344 18.5879 16.3906C18.2363 16.5469 17.8275 16.625 17.3613 16.625C16.7493 16.625 16.2428 16.4922 15.8418 16.2266C15.4408 15.9609 15.1868 15.5729 15.0801 15.0625L15.9551 14.8437C16.0384 15.1667 16.196 15.4089 16.4277 15.5703C16.6621 15.7318 16.9681 15.8125 17.3457 15.8125C17.7754 15.8125 18.1165 15.7214 18.3691 15.5391C18.6243 15.3542 18.752 15.1328 18.752 14.875C18.752 14.6667 18.679 14.4922 18.5332 14.3516C18.3874 14.2083 18.1634 14.1016 17.8613 14.0312L16.8613 13.7969C16.3118 13.6667 15.9082 13.4648 15.6504 13.1914C15.3952 12.9154 15.2676 12.5703 15.2676 12.1562C15.2676 11.8177 15.3626 11.5182 15.5527 11.2578C15.7454 10.9974 16.0072 10.793 16.3379 10.6445C16.6712 10.4961 17.0488 10.4219 17.4707 10.4219C18.0645 10.4219 18.5306 10.5521 18.8691 10.8125C19.2103 11.0729 19.4525 11.4167 19.5957 11.8437ZM23.6084 16.625C23.0303 16.625 22.5316 16.4974 22.1123 16.2422C21.6956 15.9844 21.374 15.625 21.1475 15.1641C20.9235 14.7005 20.8115 14.1615 20.8115 13.5469C20.8115 12.9323 20.9235 12.3906 21.1475 11.9219C21.374 11.4505 21.6891 11.0833 22.0928 10.8203C22.499 10.5547 22.973 10.4219 23.5146 10.4219C23.8271 10.4219 24.1357 10.474 24.4404 10.5781C24.7451 10.6823 25.0225 10.8516 25.2725 11.0859C25.5225 11.3177 25.7217 11.625 25.8701 12.0078C26.0186 12.3906 26.0928 12.862 26.0928 13.4219V13.8125H21.4678V13.0156H25.1553C25.1553 12.6771 25.0876 12.375 24.9521 12.1094C24.8193 11.8437 24.6292 11.6341 24.3818 11.4805C24.137 11.3268 23.848 11.25 23.5146 11.25C23.1475 11.25 22.8298 11.3411 22.5615 11.5234C22.2959 11.7031 22.0915 11.9375 21.9482 12.2266C21.805 12.5156 21.7334 12.8255 21.7334 13.1562V13.6875C21.7334 14.1406 21.8115 14.5247 21.9678 14.8398C22.1266 15.1523 22.3467 15.3906 22.6279 15.5547C22.9092 15.7161 23.236 15.7969 23.6084 15.7969C23.8506 15.7969 24.0693 15.763 24.2646 15.6953C24.4626 15.625 24.6331 15.5208 24.7764 15.3828C24.9196 15.2422 25.0303 15.0677 25.1084 14.8594L25.999 15.1094C25.9053 15.4115 25.7477 15.6771 25.5264 15.9062C25.305 16.1328 25.0316 16.3099 24.7061 16.4375C24.3805 16.5625 24.0146 16.625 23.6084 16.625Z" fill="#141A23"/>
<path d="M43 10L45 12M45 12L43 14M45 12H41M35 10L33 12M33 12L35 14M33 12H37M37 16L39 18M39 18L41 16M39 18V14M41 8L39 6M39 6L37 8M39 6V10" stroke="#141A23" stroke-linecap="round" stroke-linejoin="round"/>
</svg>
