<svg xmlns="http://www.w3.org/2000/svg" width="30" height="30" viewBox="0 0 14 14" fill="none">
  <path d="M6.4165 7.00016C6.4165 7.15487 6.47796 7.30325 6.58736 7.41264C6.69675 7.52204 6.84513 7.5835 6.99984 7.5835C7.15455 7.5835 7.30292 7.52204 7.41232 7.41264C7.52171 7.30325 7.58317 7.15487 7.58317 7.00016C7.58317 6.84545 7.52171 6.69708 7.41232 6.58768C7.30292 6.47829 7.15455 6.41683 6.99984 6.41683C6.84513 6.41683 6.69675 6.47829 6.58736 6.58768C6.47796 6.69708 6.4165 6.84545 6.4165 7.00016Z" fill="#7f8792"/>
  <path d="M6.4165 11.0835C6.4165 11.2382 6.47796 11.3866 6.58736 11.496C6.69675 11.6054 6.84513 11.6668 6.99984 11.6668C7.15455 11.6668 7.30292 11.6054 7.41232 11.496C7.52171 11.3866 7.58317 11.2382 7.58317 11.0835C7.58317 10.9288 7.52171 10.7804 7.41232 10.671C7.30292 10.5616 7.15455 10.5002 6.99984 10.5002C6.84513 10.5002 6.69675 10.5616 6.58736 10.671C6.47796 10.7804 6.4165 10.9288 6.4165 11.0835Z" fill="#7f8792"/>
  <path d="M6.4165 2.91683C6.4165 3.07154 6.47796 3.21991 6.58736 3.32931C6.69675 3.4387 6.84513 3.50016 6.99984 3.50016C7.15455 3.50016 7.30292 3.4387 7.41232 3.32931C7.52171 3.21991 7.58317 3.07154 7.58317 2.91683C7.58317 2.76212 7.52171 2.61375 7.41232 2.50435C7.30292 2.39495 7.15455 2.3335 6.99984 2.3335C6.84513 2.3335 6.69675 2.39495 6.58736 2.50435C6.47796 2.61375 6.4165 2.76212 6.4165 2.91683Z" fill="#7f8792"/>
  <path d="M6.4165 7.00016C6.4165 7.15487 6.47796 7.30325 6.58736 7.41264C6.69675 7.52204 6.84513 7.5835 6.99984 7.5835C7.15455 7.5835 7.30292 7.52204 7.41232 7.41264C7.52171 7.30325 7.58317 7.15487 7.58317 7.00016C7.58317 6.84545 7.52171 6.69708 7.41232 6.58768C7.30292 6.47829 7.15455 6.41683 6.99984 6.41683C6.84513 6.41683 6.69675 6.47829 6.58736 6.58768C6.47796 6.69708 6.4165 6.84545 6.4165 7.00016Z" stroke="#7f8792" stroke-width="1.5" stroke-linecap="round" stroke-linejoin="round"/>
  <path d="M6.4165 11.0835C6.4165 11.2382 6.47796 11.3866 6.58736 11.496C6.69675 11.6054 6.84513 11.6668 6.99984 11.6668C7.15455 11.6668 7.30292 11.6054 7.41232 11.496C7.52171 11.3866 7.58317 11.2382 7.58317 11.0835C7.58317 10.9288 7.52171 10.7804 7.41232 10.671C7.30292 10.5616 7.15455 10.5002 6.99984 10.5002C6.84513 10.5002 6.69675 10.5616 6.58736 10.671C6.47796 10.7804 6.4165 10.9288 6.4165 11.0835Z" stroke="#7f8792" stroke-width="1.5" stroke-linecap="round" stroke-linejoin="round"/>
  <path d="M6.4165 2.91683C6.4165 3.07154 6.47796 3.21991 6.58736 3.32931C6.69675 3.4387 6.84513 3.50016 6.99984 3.50016C7.15455 3.50016 7.30292 3.4387 7.41232 3.32931C7.52171 3.21991 7.58317 3.07154 7.58317 2.91683C7.58317 2.76212 7.52171 2.61375 7.41232 2.50435C7.30292 2.39495 7.15455 2.3335 6.99984 2.3335C6.84513 2.3335 6.69675 2.39495 6.58736 2.50435C6.47796 2.61375 6.4165 2.76212 6.4165 2.91683Z" stroke="#7f8792" stroke-width="1.5" stroke-linecap="round" stroke-linejoin="round"/>
</svg>
