<svg xmlns="http://www.w3.org/2000/svg" width="30" height="30" fill="#141a23" viewBox="0 0 32 32">
  <g transform="translate(-0.50559345,-0.17213059)">
    <g transform="matrix(0.26458333,0,0,0.26458333,43.955982,102.2897)">
      <g stroke-width="0"/>
      <g stroke-linecap="round" stroke-linejoin="round"/>
      <g stroke-width="0"/>
      <g stroke-linecap="round" stroke-linejoin="round"/>
      <g transform="matrix(2.5845846,0,0,2.5626371,-127.53227,-352.49068)">
        <path d="m 12,25 6.67,6.67 a 1,1 0 0 0 0.7,0.29 0.91,0.91 0 0 0 0.39,-0.08 1,1 0 0 0 0.61,-0.92 V 13.08 L 31.71,1.71 A 1,1 0 0 0 31.92,0.62 1,1 0 0 0 31,0 H 1 A 1,1 0 0 0 0.08,0.62 1,1 0 0 0 0.29,1.71 L 11.67,13.08 V 24.33 A 1,1 0 0 0 12,25 Z M 3.41,2 h 25.18 l -10,10 a 1,1 0 0 0 -0.3,0.71 V 28.59 L 13.63,23.92 V 12.67 a 1,1 0 0 0 -0.3,-0.71 z"/>
      </g>
      <g transform="translate(11.140784,4.1370397)">
        <g stroke-width="0"/>
        <g stroke-linecap="round" stroke-linejoin="round"/>
        <g transform="matrix(0.35591791,0,0,0.35591791,-214.09032,-388.22472)">
          <path d="m 216.358,271.76 c -2.322,-5.605 -7.792,-9.26 -13.858,-9.26 H 180 V 15 C 180,6.716 173.284,0 165,0 156.716,0 150,6.716 150,15 v 247.5 h -22.5 c -6.067,0 -11.537,3.655 -13.858,9.26 -2.321,5.605 -1.038,12.057 3.252,16.347 l 37.5,37.5 c 2.928,2.929 6.767,4.393 10.606,4.393 3.839,0 7.678,-1.464 10.607,-4.394 l 37.5,-37.5 c 4.289,-4.29 5.573,-10.741 3.251,-16.346 z"/>
        </g>
        <g stroke-width="0"/>
        <g stroke-linecap="round" stroke-linejoin="round"/>
      </g>
    </g>
  </g>
</svg>
